<svg xmlns="http://www.w3.org/2000/svg" width="124" height="24" viewBox="0 0 124 24">
<path d="M0 1h1v-1h122v1h1v22h-1v1h-122v-1h-1z" fill="#001" stroke="none" />
<path d="M2 3h1v-1h118v1h1v18h-1v1h-118v-1h-1z" stroke="#ffe" stroke-width="2" stroke-linecap="square" fill="none" />
<g fill="#ffe" stroke="none">
<path d="M8 4m0 10v1h1v1h5v-1h-5v-1h1v-1h-1v1zm1 -5v1h4v1h1v-1h-1v-1h-3z" />
<path d="M16 4m0 6v1h2v2h-1v1h-1v1h1v-1h1v2h1v-4h1v-1h2v2h-1v2h1v1h1v-1h-1v-2h1v-2h-1v-1h-2v1h-1v-3h-1v2h-1z" />
<path d="M24 4m1 5v1h1v2h-1v1h1v2h1v1h3v-1h-3v-2h-1v-1h1v1h1v1h1v-2h1v-1h-1v1h-1v-1h-1v-1h2v-1h-1v-1h-1v1h-1z" />
<path d="M36 4m0 6v1h2v1h-1v2h-1v2h1v-2h1v1h1v1h1v-1h1v-4h-1v4h-1v-1h-1v-2h1v-1h1v-1h-1v-2h-1v2h-1zm5 -1v1h1v2h1v-2h-1v-1z" />
<path d="M44 4m0 5v1h3v1h-3v1h4v1h-1v1h2v-2h1v-1h-2v-1h2v-1h-3v-1h-1v1h-1zm0 5v1h1v1h4v-1h-4v-1z" />
<path d="M52 4m0 9v2h1v1h6v-1h-6v-2h1v-1h2v-1h2v-1h-2v1h-1v-3h-1v4h-1v1z" />
<path d="M60 4m0 8v3h1v1h2v-1h1v-2h-2v1h1v1h-2v-2h1v-1h1v-1h1v2h1v-1h1v3h-1v1h1v-1h1v-3h-1v-1h-1v-3h-1v2h-1v1h-1v-2h-1v3z" />
<path d="M68 4m0 5v1h4v1h-1v1h-1v2h1v1h1v1h2v-1h-2v-1h-1v-2h1v-1h2v-1h1v-1h-6z" />
<path d="M76 4m0 5v1h2v2h-1v1h1v2h-1v-2h-1v2h1v1h2v-4h3v3h-1v1h1v-1h1v-3h-1v-1h-3v-1h2v-1h-2v-1h-1v1h-1zm6 -1v2h1v-2z" />
<path d="M84 4m2 7v2h1v1h1v1h1v1h1v-1h-1v-1h-1v-1h-1v-2h1v-1h1v-1h1v-1h-1v1h-1v1h-1v1z" />
<path d="M92 4m0 7v4h1v1h2v-1h-2v-4h1v-1h1v5h1v-5h1v1h1v4h-1v1h1v-1h1v-4h-1v-1h-1v-1h-3v1h-1v1z" />
<path d="M100 4m0 6v1h2v1h-1v2h-1v2h1v-2h1v-2h1v-1h3v-1h-3v-2h-1v2h-1zm3 4v1h1v1h3v-1h-3v-1zm1 -8v1h1v1h1v-1h-1v-1zm0 6v1h3v-1h-2zm2 -7v1h1v1h1v-1h-1v-1z" />
<path d="M108 4m0 7v1h3v1h-1v2h1v1h3v-1h-3v-2h1v-1h3v-1h-4v-1h1v-1h1v-1h1v-1h-1v-1h-1v1h1v1h-4v1h2v1h-1v1h-1zm6 -6v1h1v1h1v-1h-1v-1z" />
</g>
</svg>
