<svg xmlns="http://www.w3.org/2000/svg" xmlns:xlink="http://www.w3.org/1999/xlink" buffered-rendering="static" width="32px" height="32px" viewBox="0,0,96,96">
<path d="m27,6h42v6h6v3h3v3h6v45h-3v9h-3v3h-3v3h-3v3h-3v3h-6v3h-6v3h-18v-3h-6v-3h-6v-3h-3v-3h-3v-3h-3v-3h-3v-9h-3v-45h6v-3h3v-3h6zm4,3h-1v3h-3v3h-3v3h-3v3h-6v39h3v9h3v3h3v3h3v3h3v3h6v3h3v3h18v-3h3v-3h6v-3h3v-3h3v-3h3v-3h3v-9h3v-39h-6v-3h-3v-3h-3v-3h-3v-3zm2,6h30v3h3v3h3v3h3v3h3v33h-3v9h-3v3h-6v3h-3v3h-6v3h-12v-3h-6v-3h-3v-3h-6v-3h-3v-9h-3v-33h3v-3h3v-3h3v-3h3zm4,3h-1v3h24v-3zm-3,6h-1v6h6v27h-6v6h30v-6h-6v-27h6v-6zm-6,3h-1v3h-3v27h3v9h3v-12h6v-21h-6v-6zm39,0h-1v6h-6v21h6v12h3v-9h3v-27h-3v-3zm-22,3h6v27h-6zm-14,36h-1v3h6v3h3v3h6v3h6v-3h6v-3h3v-3h6v-3z" fill="#000"/>
<path d="m30,9h18v6h-15v3h-3v3h-3v3h-3v3h-3v15h-6v-21h6v-3h3v-3h3v-3h3zm45,27h6v24h-3v9h-3v3h-3v3h-3v3h-3v3h-6v3h-3v3h-9v-6h6v-3h6v-3h3v-3h6v-3h3v-9h3z" fill="#ff0"/>
<path d="m48,9h18v3h3v3h3v3h3v3h6v15h-6v-9h-3v-3h-3v-3h-3v-3h-3v-3h-15zm-15,15h30v6h-6v27h6v6h-30v-6h6v-27h-6zm13,6h-1v27h6v-27z" fill="#fff"/>
<path d="m36,18h24v3h-24zm-9,9h3v6h6v21h-6v12h36v-12h-6v-21h6v-6h3v3h3v27h-3v9h-3v3h-6v3h-3v3h-6v3h-6v-3h-6v-3h-3v-3h-6v-3h-3v-9h-3v-27h3z" fill="#f00"/>
<path d="m15,42h6v18h3v9h3v3h6v3h3v3h6v3h6v6h-9v-3h-3v-3h-6v-3h-3v-3h-3v-3h-3v-3h-3v-9h-3z" fill="#aa0"/>
</svg>